<svg xmlns="http://www.w3.org/2000/svg" xmlns:xlink="http://www.w3.org/1999/xlink" version="1.1" id="Layer_1" x="0px" y="0px" width="100px" height="100px" viewBox="0 0 100 100" enable-background="new 0 0 100 100" xml:space="preserve">
<g id="Captions">
</g>
<path fill="#000000" d="M69.702,38.934c-0.022-0.014-0.051-0.024-0.075-0.038c-0.793-0.43-1.637-0.811-2.514-1.151  c-5.745-2.233-12.931-2.663-16.957-2.663c-4.197,0-11.828,0.47-17.68,2.96c-0.645,0.274-1.274,0.567-1.869,0.892  c-0.085,0.224-0.162,0.443-0.242,0.666c-4.833,13.232-1.6,23.744,3.55,31.373c0.497,0.737,1.011,1.447,1.539,2.131  c6.438,8.333,14.703,12.638,14.703,12.638s7.881-4.105,14.246-12.058c0.537-0.672,1.063-1.371,1.573-2.099  C71.454,63.785,75.032,52.839,69.702,38.934z"/>
<path d="M22.75,81.607c-1.713,1.713-3.183,3.571-4.976,5.201c-0.514,0.467-0.917,0.995-1.445,1.456  c-0.614,0.535-1.298,0.984-1.914,1.515c-0.653,0.557-2.145,1.47-1.165,2.373c0.15,0.143,0.372,0.364,0.611,0.552  c0.274,0.213,0.571,0.379,0.803,0.305c0.413-0.125,0.787-0.644,1.078-0.924c1.096-1.065,2-2.28,3.207-3.254  c0.481-0.389,0.979-0.815,1.415-1.207c1.039-0.928,2.166-1.791,3.155-2.784c5.554-5.554,8.876-8.864,11.014-10.979  c-0.549-0.711-1.084-1.451-1.602-2.218c-0.364,0.358-0.728,0.718-1.095,1.073c-0.365,0.354-0.766,0.637-1.131,0.988  c-0.189,0.182-0.376,0.364-0.564,0.548c-0.705,0.69-1.404,1.386-2.104,2.08c-1.28,1.272-2.558,2.547-3.834,3.822  C23.718,80.639,23.234,81.123,22.75,81.607z"/>
<path d="M76.762,85.725c0.992,0.993,2.12,1.856,3.158,2.784c0.769,0.688,1.596,1.308,2.329,2.034  c0.79,0.784,1.494,1.649,2.292,2.426c0.29,0.281,0.664,0.8,1.078,0.925c0.231,0.073,0.528-0.092,0.804-0.305  c0.237-0.188,0.461-0.409,0.61-0.553c0.979-0.903-0.513-1.815-1.165-2.373c-1.869-1.598-3.682-3.266-5.386-5.039  c-0.995-1.034-1.937-2.117-2.951-3.132c-0.027-0.027-0.055-0.055-0.082-0.083c-1.458-1.458-2.917-2.915-4.378-4.37  c-0.835-0.832-1.671-1.663-2.511-2.491c-0.238-0.234-0.478-0.469-0.717-0.702c-0.374-0.364-0.789-0.664-1.166-1.024  c-0.129-0.123-0.257-0.247-0.385-0.371c-0.461-0.449-0.919-0.902-1.377-1.355c-0.531,0.756-1.079,1.484-1.639,2.184  C67.388,76.363,70.772,79.735,76.762,85.725z"/>
<path d="M32.456,36.862c0,0-10.702-10.862-16.046-16.205c-0.815-0.816-2.012-1.225-2.644-2.227  c-0.171-0.271-0.304-0.532-0.491-0.788c-0.309-0.422-0.426-0.952-0.578-1.456c-0.179-0.598-0.261-1.222-0.292-1.844  c-3.487-1.753-6.447-4.03-10.014-5.702c1.934,3.458,4.081,6.702,6.008,10.169c0.712-0.019,1.551,0.078,2.223,0.317  c0.419,0.149,0.75,0.259,1.138,0.505c0.406,0.258,0.658,0.525,0.977,0.929c0.236,0.298,0.681,0.479,0.678,0.892  c-0.004,0.493-0.35,1.146-0.477,1.63c-0.271,1.034-0.487,2.084-0.617,3.146c-0.121,0.992-0.168,1.994-0.105,2.992  c0.029,0.464,0.083,0.926,0.164,1.383c0.039,0.219,0.405,1.16,0.319,1.32c0,0,0.715-1.333,1.147-3.44  c0.234,0.872,0.559,1.774,1.021,2.686c0.469-3.078,0.47-6.026-0.267-8.528c0.353,0.382,0.699,0.755,1.042,1.098  c4.878,4.878,14.28,14.381,14.28,14.381L32.456,36.862z"/>
<path d="M98.422,8.035c-3.563,1.672-6.528,3.949-10.014,5.703c-0.068,0.034-0.123,1.07-0.14,1.202  c-0.047,0.366-0.06,0.784-0.139,1.14c-0.075,0.339-0.341,0.644-0.489,0.956c-0.274,0.578-0.949,0.933-1.419,1.333  c-0.626,0.533-1.238,1.102-1.819,1.683c-5.6,5.599-11.121,11.208-16.596,16.766c0.912,0.355,1.791,0.751,2.616,1.198  c4.865-4.956,9.757-9.89,14.749-14.882c0.343-0.343,0.688-0.716,1.042-1.098c-0.737,2.502-0.735,5.45-0.267,8.528  c0.462-0.913,0.787-1.815,1.021-2.688c0.433,2.109,1.148,3.442,1.148,3.442c-0.033-0.062,0.119-0.412,0.14-0.491  c0.051-0.196,0.095-0.394,0.135-0.593c0.077-0.388,0.134-0.781,0.172-1.175c0.079-0.821,0.08-1.649,0.022-2.472  c-0.125-1.792-0.517-3.56-1.041-5.275c-0.052-0.171-0.207-0.447-0.168-0.63c0.039-0.187,0.267-0.322,0.385-0.457  c0.338-0.387,0.631-0.834,1.051-1.16c0.279-0.216,0.587-0.394,0.893-0.568c0.42-0.24,0.898-0.271,1.371-0.267  c0.446,0.004,0.893-0.039,1.338-0.026C94.342,14.737,96.487,11.493,98.422,8.035z"/>
<g>
	<path fill="#000000" d="M57.586,46.786c0.012,0.014,0.022,0.028,0.033,0.042c0,1.266,0,2.532,0,3.798   c0,0.295-0.232,0.498-0.498,0.479c-1.309-0.093-2.626-0.158-3.947-0.198c-0.269-0.008-0.471-0.244-0.471-0.553   c0-0.645,0-1.289,0-1.933c-1.389-0.051-2.781-0.061-4.171-0.027c-0.067,0.001-0.135,0.003-0.236,0.122   c-0.179,0.211-0.358,0.423-0.538,0.635c-0.134,0.159-0.134,0.313-0.134,0.313c0,1.043,0,2.087,0,3.13   c0.011-0.013,0.022-0.025,0.034-0.039c0,0-0.033,0.155,0.101,0.308c0.157,0.179,0.314,0.357,0.471,0.536   c2.096-0.021,4.198-0.008,6.286,0.041c0-0.001,0.47-0.064,0.871,0.438c0.624,0.723,1.247,1.434,1.867,2.128   c0.399,0.445,0.365,0.958,0.365,0.959c0,2.912,0,5.825,0,8.737c0,0.001,0.034,0.511-0.365,1.014   c-0.62,0.783-1.243,1.571-1.867,2.359c-0.401,0.507-0.871,0.522-0.871,0.521c-2.893,0.318-5.811,0.318-8.704,0   c0,0.001-0.469-0.015-0.87-0.521c-0.625-0.788-1.247-1.576-1.868-2.359c-0.399-0.503-0.333-1.009-0.333-1.009   c0,0-0.033-0.041-0.033-0.078c0-1.192,0-2.384,0-3.576c0-0.295,0.232-0.497,0.499-0.478c1.309,0.095,2.625,0.163,3.947,0.204   c0.269,0.009,0.47,0.245,0.47,0.555c0,0.58,0,1.159,0,1.739c1.412,0.053,2.827,0.061,4.239,0.026   c0.067-0.002,0.102-0.042,0.168-0.121c0.19-0.212,0.382-0.424,0.572-0.636c0.1-0.159,0.1-0.312,0.1-0.312c0-0.967,0-1.934,0-2.899   c0,0,0-0.155-0.1-0.308c-0.19-0.203-0.382-0.407-0.572-0.612c-0.066-0.076-0.101-0.115-0.168-0.114   c-2.018,0.019-4.041,0.004-6.051-0.043c0,0.001-0.469,0.026-0.87-0.438c-0.625-0.722-1.247-1.434-1.868-2.128   c-0.399-0.445-0.333-0.96-0.333-0.96c-0.011,0-0.022,0-0.033,0c0-2.912,0-5.825,0-8.737c0.011-0.001,0.022-0.003,0.033-0.004   c0-0.001-0.066-0.506,0.333-1.009c0.621-0.783,1.243-1.571,1.868-2.359c0.401-0.546,0.87-0.523,0.87-0.522   c2.893-0.318,5.811-0.318,8.704,0c0-0.001,0.47-0.024,0.871,0.522c0.624,0.788,1.247,1.576,1.867,2.358   c0.399,0.503,0.365,1.013,0.365,1.014C57.608,46.789,57.598,46.787,57.586,46.786z"/>
</g>
</svg>